<svg xmlns="http://www.w3.org/2000/svg" viewBox="0 0 30 30"><title>Close</title><path d="M19.2427,15.6931a1,1,0,0,1,0-1.4142l6.01-6.01A2.5,2.5,0,0,0,25.0617,4.56a2.5977,2.5977,0,0,0-3.4448.2736l-5.91,5.91a1,1,0,0,1-1.4142,0l-5.91-5.91A2.5977,2.5977,0,0,0,4.9383,4.56,2.5,2.5,0,0,0,4.747,8.2685l6.01,6.01a1,1,0,0,1,0,1.4142l-5.91,5.91a2.5977,2.5977,0,0,0-.2735,3.4448,2.5,2.5,0,0,0,3.7085.1913l6.01-6.01a1,1,0,0,1,1.4142,0l5.91,5.91a2.5978,2.5978,0,0,0,3.4448.2736,2.5,2.5,0,0,0,.1913-3.7086Z" fill="#f5f5f5"/></svg>